<?xml version="1.0" encoding="UTF-8"?>
<svg id="Capa_2" data-name="Capa 2" xmlns="http://www.w3.org/2000/svg" viewBox="0 0 88.87 70.66">
  <defs>
    <style>
      .cls-1 {
        fill: #f6f6f6;
      }
    </style>
  </defs>
  <g id="Capa_1-2" data-name="Capa 1">
    <g>
      <g>
        <path class="cls-1" d="m10.46,22.47c2.22-.3,4.45-.53,6.66-.92,6.3-1.1,9-3.9,9.94-10.24.34-2.29.61-4.58,1.18-6.91.43,2.69.86,5.38,1.29,8.07.84,5.27,4.03,8.16,9.19,9,2.35.38,4.71.68,7.18,1.35-.8.18-1.59.41-2.4.54-1.8.29-3.62.49-5.41.82-4.75.86-7.62,3.68-8.48,8.44-.52,2.88-.94,5.77-1.48,9.14-.52-3.4-.9-6.32-1.43-9.21-.89-4.87-3.92-7.61-8.75-8.43-2.53-.43-5.06-.81-7.59-1.21.03-.14.06-.29.08-.43Z"/>
        <path class="cls-1" d="m6.24,48.22c.33.15.53.49.5.85-.59,8.59,2.74,11.79,11.93,10.85,15.06-1.54,28.03-8.36,39.68-17.5,5.68-4.46,10.91-9.82,15.24-15.61,5.35-7.16,4.79-11.09-1.56-15.96-.65-.5-.29-1.55.54-1.53,3.37.1,6.76.11,9.96.88,5.09,1.21,7.64,5.96,5.68,10.95-1.92,4.87-7.53,13.86-12.45,18.55-16.73,18.27-32.39,25.96-57,30.57-3.94.74-8.33.38-12.27-.53-5.18-1.2-7.5-5.2-6.09-10.27,1.04-3.75,3.05-7.24,4.72-10.82.2-.42.69-.61,1.12-.42h0Z"/>
      </g>
      <path class="cls-1" d="m38.22,34.86c1.15-.16,2.31-.28,3.45-.47,3.26-.57,4.66-2.02,5.15-5.31.18-1.19.32-2.38.61-3.58.22,1.39.45,2.79.67,4.18.44,2.73,2.09,4.23,4.76,4.66,1.22.2,2.44.35,3.72.7-.41.1-.83.21-1.24.28-.93.15-1.87.26-2.8.42-2.46.45-3.95,1.91-4.39,4.38-.27,1.49-.49,2.99-.77,4.74-.27-1.76-.47-3.28-.74-4.77-.46-2.52-2.03-3.94-4.53-4.37-1.31-.22-2.62-.42-3.93-.63.01-.07.03-.15.04-.22Z"/>
      <path class="cls-1" d="m38.88,12.17c1.5-.2,3-.36,4.49-.62,4.24-.74,6.06-2.63,6.7-6.9.23-1.54.41-3.09.8-4.66.29,1.81.58,3.62.87,5.43.57,3.55,2.71,5.5,6.19,6.06,1.58.26,3.18.46,4.84.91-.54.12-1.07.28-1.62.36-1.21.2-2.44.33-3.64.55-3.2.58-5.13,2.48-5.71,5.69-.35,1.94-.63,3.89-1,6.16-.35-2.29-.61-4.26-.96-6.21-.6-3.28-2.64-5.13-5.89-5.68-1.7-.29-3.41-.54-5.11-.81.02-.1.04-.19.06-.29Z"/>
    </g>
  </g>
</svg>