<?xml version="1.0" encoding="UTF-8"?>
<svg id="Capa_2" data-name="Capa 2" xmlns="http://www.w3.org/2000/svg" viewBox="0 0 403.15 145.16">
  <defs>
    <style>
      .cls-1 {
        fill: #fff;
      }
    </style>
  </defs>
  <g id="Capa_1-2" data-name="Capa 1">
    <g>
      <path class="cls-1" d="m116.83,97.37c-1.66,0-3.32.05-4.97-.01-1.78-.06-2.54-.83-2.12-2.54.44-1.76,1.13-3.52,2.01-5.11,6.98-12.64,14.04-25.24,21.05-37.86.89-1.61,1.82-3.23,2.48-4.93.99-2.54-.46-4.3-3.14-3.92-3.33.47-5.98,2.24-7.75,5.03-2.05,3.23-3.85,6.63-5.72,9.97-4,7.15-8,14.3-11.97,21.46-2.53,4.55-4.95,9.16-7.52,13.69-2.09,3.67-5.34,5.68-9.56,6.04-8.17.68-16.33,1.34-24.5,2.01-.33.03-.66.03-.99.01-1.89-.08-2.68-1.07-2.18-2.92.3-1.09.74-2.15,1.28-3.14,6.11-11.23,12.23-22.46,18.38-33.67,7.89-14.36,15.81-28.7,23.72-43.05,2.77-5.02,5.53-10.04,8.33-15.03.5-.9,1.13-1.75,1.83-2.52,1.09-1.2,2.12-1.18,3.06.13,1.16,1.61,2.18,3.32,3.21,5.02,3.58,5.96,7.04,12.01,10.75,17.89,1.77,2.8,1.6,5.42.4,8.22-.3.7-.68,1.36-.9,2.08-.63,2.01.39,3.54,2.49,3.66,1.51.08,3.03.03,4.54-.04,11.03-.46,22.05-.95,33.08-1.4,2.8-.11,4.04,1.63,2.79,4.13-1.61,3.21-3.44,6.31-5.21,9.45-6.99,12.42-13.99,24.84-20.99,37.25-.79,1.4-1.55,2.84-2.49,4.13-2.41,3.29-5.77,4.7-9.8,4.86-6.53.26-13.06.65-19.58.98v.15-.02Z"/>
      <path class="cls-1" d="m87.01,9.35c3.74-.49,3.79,2.07,2.53,4.56-1.82,3.59-3.84,7.07-5.71,10.63-.54,1.03-1.06,2.14-1.25,3.28-.31,1.81.73,2.88,2.57,2.94.9.03,1.83-.11,2.69.09.61.14,1.37.62,1.57,1.14.16.4-.3,1.37-.75,1.61-1.43.79-2.93,1.73-4.5,1.94-5.07.68-8.41,3.4-10.75,7.84-4.07,7.7-8.32,15.31-12.48,22.96-8.23,15.14-16.47,30.27-24.69,45.42-5.44,10.03-10.84,20.08-16.31,30.09-.55,1.01-1.41,1.87-2.23,2.71-.95.97-1.9.71-2.6-.35-1.22-1.86-2.4-3.75-3.57-5.64-3.34-5.39-6.57-10.86-10.03-16.17-2.13-3.28-1.8-6.53-.22-9.7,2.58-5.16,5.41-10.21,8.15-15.29,4.19-7.75,8.38-15.49,12.59-23.23,7.44-13.69,14.9-27.37,22.34-41.05,2.76-5.08,5.48-10.17,8.27-15.23,2.12-3.84,5.31-5.99,9.78-6.35,8.03-.65,16.04-1.43,24.58-2.2h.02Z"/>
      <path class="cls-1" d="m403.1,39.57c.19,2.75-1.1,4.95-2.45,7.15-7.85,12.79-15.68,25.58-23.5,38.38-2.69,4.4-5.25,8.89-8.05,13.21-2.33,3.59-5.61,5.44-10.1,4.94-7.91-.88-15.83-1.58-23.75-2.39-4.19-.43-5.01-1.6-3.1-5.29,2.31-4.44,5.01-8.69,7.61-12.98,5.65-9.36,11.34-18.71,17.03-28.05,4.51-7.4,9.05-14.78,13.56-22.18,4.17-6.83,8.3-13.68,12.48-20.5.49-.8,1.07-1.57,1.73-2.23,1.28-1.28,2.42-1.21,3.39.34,1.65,2.65,3.19,5.36,4.71,8.09,2.88,5.17,5.72,10.36,8.56,15.55,1.02,1.87,2.15,3.71,1.89,5.96h-.01Z"/>
      <path class="cls-1" d="m316.69,99.41c-8.83-.71-17.66-1.39-26.48-2.14-1.95-.17-2.87-1.42-2.2-3.27.7-1.94,1.7-3.79,2.76-5.56,9.34-15.66,18.71-31.3,28.1-46.93,5.91-9.82,11.87-19.61,17.83-29.4,1.23-2.02,2.4-4.09,3.83-5.96,1.68-2.21,3.09-2.14,4.48.26,3.1,5.37,6.04,10.83,9.04,16.26,1.56,2.82,3.07,5.66,4.64,8.46,1.38,2.46,1.58,5.02.29,7.49-1.89,3.6-3.94,7.12-6.04,10.6-8.83,14.64-17.7,29.26-26.56,43.87-1.26,2.08-2.61,4.13-4.95,5.13-1.49.64-3.07,1.05-4.61,1.57-.04-.13-.08-.25-.12-.38h-.01Z"/>
      <path class="cls-1" d="m239.58,57.74c-4.17-.16-8.33-.32-12.5-.49-.61-.03-1.24-.06-1.83-.19-1.57-.36-2.33-1.46-1.77-2.96.61-1.63,1.52-3.14,2.31-4.7.57-1.14,1.19-2.26,1.73-3.41.56-1.21.84-2.46-.19-3.59-.99-1.09-2.27-1.33-3.65-1.02-2.82.65-5.28,1.99-6.83,4.49-2.67,4.3-5.25,8.66-7.78,13.05-5.58,9.68-11.1,19.39-16.64,29.09-2.45,4.29-5.97,6.6-11.07,6.62-7.25.03-14.49.33-21.74.51-.52.01-1.04-.01-1.56.01-4.48.21-4.35-2.13-3.03-4.88,1.67-3.49,3.7-6.82,5.62-10.19,5.19-9.14,10.42-18.26,15.62-27.4,1.89-3.33,3.69-6.72,5.59-10.06,2.38-4.19,5.82-6.54,10.84-6.47,14.92.21,29.84.25,44.76.5,8.43.14,16.85.55,25.28.85.9.03,1.79.15,2.68.3,1.85.31,2.58,1.25,2.19,3.08-.22,1.05-.63,2.1-1.17,3.03-1.74,3.04-3.49,6.08-5.39,9.02-2.25,3.46-5.48,5.29-9.68,5.16-3.93-.12-7.86-.3-11.79-.45v.09h0Z"/>
      <path class="cls-1" d="m260.58,95.43c-3.93,0-7.86.02-11.79-.01-.99,0-1.98-.14-2.96-.31-1.66-.29-2.47-1.44-2.06-3.08.24-.95.67-1.88,1.17-2.73,5.44-9.27,10.91-18.52,16.36-27.78,3.39-5.75,6.81-11.48,10.14-17.27,2.24-3.88,5.52-5.71,9.97-5.47,7.9.44,15.8.9,23.69,1.35.52.03,1.03.12,1.55.21,2.49.43,3.27,1.54,2.49,3.97-.46,1.42-1.24,2.76-2.01,4.05-7.38,12.31-14.79,24.59-22.19,36.88-1.34,2.23-2.59,4.53-4.07,6.66-2.17,3.13-5.14,4.76-9.09,4.48-3.73-.27-7.48-.37-11.21-.54v-.44.03Z"/>
    </g>
  </g>
</svg>