<?xml version="1.0" encoding="UTF-8"?>
<svg id="Capa_2" data-name="Capa 2" xmlns="http://www.w3.org/2000/svg" viewBox="0 0 248 248">
  <defs>
    <style>
      .cls-1 {
        fill: #1d1d1b;
      }

      .cls-2 {
        fill: #010101;
      }
    </style>
  </defs>
  <g id="Capa_1-2" data-name="Capa 1">
    <g>
      <g>
        <rect class="cls-2" x="76.89" width="8.8" height="8.8"/>
        <rect class="cls-2" x="111.06" width="8.8" height="8.8"/>
        <rect class="cls-2" x="136.69" width="8.8" height="8.8"/>
        <rect class="cls-2" x="153.77" width="8.8" height="8.8"/>
        <rect class="cls-2" x="162.31" width="8.8" height="8.8"/>
        <rect class="cls-2" x="170.86" width="8.8" height="8.8"/>
        <rect class="cls-2" x="76.89" y="8.54" width="8.8" height="8.8"/>
        <rect class="cls-2" x="85.43" y="8.54" width="8.8" height="8.8"/>
        <rect class="cls-2" x="128.14" y="8.54" width="8.8" height="8.8"/>
        <rect class="cls-2" x="145.23" y="8.54" width="8.8" height="8.8"/>
        <rect class="cls-2" x="153.77" y="8.54" width="8.8" height="8.8"/>
        <rect class="cls-2" x="68.34" y="17.09" width="8.8" height="8.8"/>
        <rect class="cls-2" x="85.43" y="17.09" width="8.8" height="8.8"/>
        <rect class="cls-2" x="102.51" y="17.09" width="8.8" height="8.8"/>
        <rect class="cls-2" x="128.14" y="17.09" width="8.8" height="8.8"/>
        <rect class="cls-2" x="136.69" y="17.09" width="8.8" height="8.8"/>
        <rect class="cls-2" x="162.31" y="17.09" width="8.8" height="8.8"/>
        <rect class="cls-2" x="170.86" y="17.09" width="8.8" height="8.8"/>
        <rect class="cls-2" x="68.34" y="25.63" width="8.8" height="8.8"/>
        <rect class="cls-2" x="76.89" y="25.63" width="8.8" height="8.8"/>
        <rect class="cls-2" x="102.51" y="25.63" width="8.8" height="8.8"/>
        <rect class="cls-2" x="111.06" y="25.63" width="8.8" height="8.8"/>
        <rect class="cls-2" x="119.6" y="25.63" width="8.8" height="8.8"/>
        <rect class="cls-2" x="128.14" y="25.63" width="8.8" height="8.8"/>
        <rect class="cls-2" x="136.69" y="25.63" width="8.8" height="8.8"/>
        <rect class="cls-2" x="145.23" y="25.63" width="8.8" height="8.8"/>
        <rect class="cls-2" x="162.31" y="25.63" width="8.8" height="8.8"/>
        <rect class="cls-2" x="68.34" y="34.17" width="8.8" height="8.8"/>
        <rect class="cls-2" x="102.51" y="34.17" width="8.8" height="8.8"/>
        <rect class="cls-2" x="136.69" y="34.17" width="8.8" height="8.8"/>
        <rect class="cls-2" x="145.23" y="34.17" width="8.8" height="8.8"/>
        <rect class="cls-2" x="153.77" y="34.17" width="8.8" height="8.8"/>
        <rect class="cls-2" x="162.31" y="34.17" width="8.8" height="8.8"/>
        <rect class="cls-2" x="68.34" y="42.71" width="8.8" height="8.8"/>
        <rect class="cls-2" x="76.89" y="42.71" width="8.8" height="8.8"/>
        <rect class="cls-2" x="85.43" y="42.71" width="8.8" height="8.8"/>
        <rect class="cls-2" x="93.97" y="42.71" width="8.8" height="8.8"/>
        <rect class="cls-2" x="102.51" y="42.71" width="8.8" height="8.8"/>
        <rect class="cls-2" x="119.6" y="42.71" width="8.8" height="8.8"/>
        <rect class="cls-2" x="128.14" y="42.71" width="8.8" height="8.8"/>
        <rect class="cls-2" x="145.23" y="42.71" width="8.8" height="8.8"/>
        <rect class="cls-2" x="170.86" y="42.71" width="8.8" height="8.8"/>
        <rect class="cls-2" x="68.34" y="51.26" width="8.8" height="8.8"/>
        <rect class="cls-2" x="85.43" y="51.26" width="8.8" height="8.8"/>
        <rect class="cls-2" x="102.51" y="51.26" width="8.8" height="8.8"/>
        <rect class="cls-2" x="119.6" y="51.26" width="8.8" height="8.8"/>
        <rect class="cls-2" x="136.69" y="51.26" width="8.8" height="8.8"/>
        <rect class="cls-2" x="153.77" y="51.26" width="8.8" height="8.8"/>
        <rect class="cls-2" x="170.86" y="51.26" width="8.8" height="8.8"/>
        <rect class="cls-2" x="68.34" y="59.8" width="8.8" height="8.8"/>
        <rect class="cls-2" x="76.89" y="59.8" width="8.8" height="8.8"/>
        <rect class="cls-2" x="119.6" y="59.8" width="8.8" height="8.8"/>
        <rect class="cls-2" x="128.14" y="59.8" width="8.8" height="8.8"/>
        <rect class="cls-2" x="136.69" y="59.8" width="8.8" height="8.8"/>
        <rect class="cls-2" x="170.86" y="59.8" width="8.8" height="8.8"/>
        <rect class="cls-2" y="68.34" width="8.8" height="8.8"/>
        <rect class="cls-2" x="17.09" y="68.34" width="8.8" height="8.8"/>
        <rect class="cls-2" x="25.63" y="68.34" width="8.8" height="8.8"/>
        <rect class="cls-2" x="34.17" y="68.34" width="8.8" height="8.8"/>
        <rect class="cls-2" x="42.71" y="68.34" width="8.8" height="8.8"/>
        <rect class="cls-2" x="51.26" y="68.34" width="8.8" height="8.8"/>
        <rect class="cls-2" x="76.89" y="68.34" width="8.8" height="8.8"/>
        <rect class="cls-2" x="85.43" y="68.34" width="8.8" height="8.8"/>
        <rect class="cls-2" x="111.06" y="68.34" width="8.8" height="8.8"/>
        <rect class="cls-2" x="119.6" y="68.34" width="8.8" height="8.8"/>
        <rect class="cls-2" x="145.23" y="68.34" width="8.8" height="8.8"/>
        <rect class="cls-2" x="162.31" y="68.34" width="8.8" height="8.8"/>
        <rect class="cls-2" x="187.94" y="68.34" width="8.8" height="8.8"/>
        <rect class="cls-2" x="196.49" y="68.34" width="8.8" height="8.8"/>
        <rect class="cls-2" x="205.03" y="68.34" width="8.8" height="8.8"/>
        <rect class="cls-2" x="213.57" y="68.34" width="8.8" height="8.8"/>
        <rect class="cls-2" x="222.12" y="68.34" width="8.8" height="8.8"/>
        <rect class="cls-2" x="34.17" y="76.89" width="8.8" height="8.8"/>
        <rect class="cls-2" x="68.34" y="76.89" width="8.8" height="8.8"/>
        <rect class="cls-2" x="93.97" y="76.89" width="8.8" height="8.8"/>
        <rect class="cls-2" x="119.6" y="76.89" width="8.8" height="8.8"/>
        <rect class="cls-2" x="136.69" y="76.89" width="8.8" height="8.8"/>
        <rect class="cls-2" x="145.23" y="76.89" width="8.8" height="8.8"/>
        <rect class="cls-2" x="153.77" y="76.89" width="8.8" height="8.8"/>
        <rect class="cls-2" x="162.31" y="76.89" width="8.8" height="8.8"/>
        <rect class="cls-2" x="170.86" y="76.89" width="8.8" height="8.8"/>
        <rect class="cls-2" x="179.4" y="76.89" width="8.8" height="8.8"/>
        <rect class="cls-2" x="187.94" y="76.89" width="8.8" height="8.8"/>
        <rect class="cls-2" x="196.49" y="76.89" width="8.8" height="8.8"/>
        <rect class="cls-2" x="205.03" y="76.89" width="8.8" height="8.8"/>
        <rect class="cls-2" x="239.2" y="76.89" width="8.8" height="8.8"/>
        <rect class="cls-2" y="85.43" width="8.8" height="8.8"/>
        <rect class="cls-2" x="8.54" y="85.43" width="8.8" height="8.8"/>
        <rect class="cls-2" x="25.63" y="85.43" width="8.8" height="8.8"/>
        <rect class="cls-2" x="34.17" y="85.43" width="8.8" height="8.8"/>
        <rect class="cls-2" x="51.26" y="85.43" width="8.8" height="8.8"/>
        <rect class="cls-2" x="68.34" y="85.43" width="8.8" height="8.8"/>
        <rect class="cls-2" x="170.86" y="85.43" width="8.8" height="8.8"/>
        <rect class="cls-2" x="179.4" y="85.43" width="8.8" height="8.8"/>
        <rect class="cls-2" x="187.94" y="85.43" width="8.8" height="8.8"/>
        <rect class="cls-2" x="25.63" y="93.97" width="8.8" height="8.8"/>
        <rect class="cls-2" x="42.71" y="93.97" width="8.8" height="8.8"/>
        <rect class="cls-2" x="59.8" y="93.97" width="8.8" height="8.8"/>
        <rect class="cls-2" x="76.89" y="93.97" width="8.8" height="8.8"/>
        <rect class="cls-2" x="196.49" y="93.97" width="8.8" height="8.8"/>
        <rect class="cls-2" x="213.57" y="93.97" width="8.8" height="8.8"/>
        <rect class="cls-2" x="230.66" y="93.97" width="8.8" height="8.8"/>
        <rect class="cls-2" x="42.71" y="102.51" width="8.8" height="8.8"/>
        <rect class="cls-2" x="51.26" y="102.51" width="8.8" height="8.8"/>
        <rect class="cls-2" x="59.8" y="102.51" width="8.8" height="8.8"/>
        <rect class="cls-2" x="68.34" y="102.51" width="8.8" height="8.8"/>
        <rect class="cls-2" x="213.57" y="102.51" width="8.8" height="8.8"/>
        <rect class="cls-2" x="222.12" y="102.51" width="8.8" height="8.8"/>
        <rect class="cls-2" x="8.54" y="111.06" width="8.8" height="8.8"/>
        <rect class="cls-2" x="42.71" y="111.06" width="8.8" height="8.8"/>
        <rect class="cls-2" x="59.8" y="111.06" width="8.8" height="8.8"/>
        <rect class="cls-2" x="76.89" y="111.06" width="8.8" height="8.8"/>
        <rect class="cls-2" x="162.31" y="111.06" width="8.8" height="8.8"/>
        <rect class="cls-2" x="170.86" y="111.06" width="8.8" height="8.8"/>
        <rect class="cls-2" x="179.4" y="111.06" width="8.8" height="8.8"/>
        <rect class="cls-2" x="187.94" y="111.06" width="8.8" height="8.8"/>
        <rect class="cls-2" x="205.03" y="111.06" width="8.8" height="8.8"/>
        <rect class="cls-2" x="239.2" y="111.06" width="8.8" height="8.8"/>
        <rect class="cls-2" x="8.54" y="119.6" width="8.8" height="8.8"/>
        <rect class="cls-2" x="25.63" y="119.6" width="8.8" height="8.8"/>
        <rect class="cls-2" x="51.26" y="119.6" width="8.8" height="8.8"/>
        <rect class="cls-2" x="68.34" y="119.6" width="8.8" height="8.8"/>
        <rect class="cls-2" x="187.94" y="119.6" width="8.8" height="8.8"/>
        <rect class="cls-2" x="196.49" y="119.6" width="8.8" height="8.8"/>
        <rect class="cls-2" x="213.57" y="119.6" width="8.8" height="8.8"/>
        <rect class="cls-2" x="222.12" y="119.6" width="8.8" height="8.8"/>
        <rect class="cls-2" y="128.14" width="8.8" height="8.8"/>
        <rect class="cls-2" x="8.54" y="128.14" width="8.8" height="8.8"/>
        <rect class="cls-2" x="25.63" y="128.14" width="8.8" height="8.8"/>
        <rect class="cls-2" x="34.17" y="128.14" width="8.8" height="8.8"/>
        <rect class="cls-2" x="59.8" y="128.14" width="8.8" height="8.8"/>
        <rect class="cls-2" x="76.89" y="128.14" width="8.8" height="8.8"/>
        <rect class="cls-2" x="162.31" y="128.14" width="8.8" height="8.8"/>
        <rect class="cls-2" x="179.4" y="128.14" width="8.8" height="8.8"/>
        <rect class="cls-2" x="187.94" y="128.14" width="8.8" height="8.8"/>
        <rect class="cls-2" x="196.49" y="128.14" width="8.8" height="8.8"/>
        <rect class="cls-2" x="205.03" y="128.14" width="8.8" height="8.8"/>
        <rect class="cls-2" x="230.66" y="128.14" width="8.8" height="8.8"/>
        <rect class="cls-2" x="8.54" y="136.69" width="8.8" height="8.8"/>
        <rect class="cls-2" x="17.09" y="136.69" width="8.8" height="8.8"/>
        <rect class="cls-2" x="42.71" y="136.69" width="8.8" height="8.8"/>
        <rect class="cls-2" x="51.26" y="136.69" width="8.8" height="8.8"/>
        <rect class="cls-2" x="76.89" y="136.69" width="8.8" height="8.8"/>
        <rect class="cls-2" x="170.86" y="136.69" width="8.8" height="8.8"/>
        <rect class="cls-2" x="196.49" y="136.69" width="8.8" height="8.8"/>
        <rect class="cls-2" x="213.57" y="136.69" width="8.8" height="8.8"/>
        <rect class="cls-2" x="222.12" y="136.69" width="8.8" height="8.8"/>
        <rect class="cls-2" y="145.23" width="8.8" height="8.8"/>
        <rect class="cls-2" x="8.54" y="145.23" width="8.8" height="8.8"/>
        <rect class="cls-2" x="17.09" y="145.23" width="8.8" height="8.8"/>
        <rect class="cls-2" x="59.8" y="145.23" width="8.8" height="8.8"/>
        <rect class="cls-2" x="76.89" y="145.23" width="8.8" height="8.8"/>
        <rect class="cls-2" x="162.31" y="145.23" width="8.8" height="8.8"/>
        <rect class="cls-2" x="170.86" y="145.23" width="8.8" height="8.8"/>
        <rect class="cls-2" x="187.94" y="145.23" width="8.8" height="8.8"/>
        <rect class="cls-2" x="196.49" y="145.23" width="8.8" height="8.8"/>
        <rect class="cls-2" x="205.03" y="145.23" width="8.8" height="8.8"/>
        <rect class="cls-2" x="222.12" y="145.23" width="8.8" height="8.8"/>
        <rect class="cls-2" x="239.2" y="145.23" width="8.8" height="8.8"/>
        <rect class="cls-2" y="153.77" width="8.8" height="8.8"/>
        <rect class="cls-2" x="17.09" y="153.77" width="8.8" height="8.8"/>
        <rect class="cls-2" x="51.26" y="153.77" width="8.8" height="8.8"/>
        <rect class="cls-2" x="59.8" y="153.77" width="8.8" height="8.8"/>
        <rect class="cls-2" x="68.34" y="153.77" width="8.8" height="8.8"/>
        <rect class="cls-2" x="170.86" y="153.77" width="8.8" height="8.8"/>
        <rect class="cls-2" x="179.4" y="153.77" width="8.8" height="8.8"/>
        <rect class="cls-2" x="196.49" y="153.77" width="8.8" height="8.8"/>
        <rect class="cls-2" x="222.12" y="153.77" width="8.8" height="8.8"/>
        <rect class="cls-2" y="162.31" width="8.8" height="8.8"/>
        <rect class="cls-2" x="25.63" y="162.31" width="8.8" height="8.8"/>
        <rect class="cls-2" x="34.17" y="162.31" width="8.8" height="8.8"/>
        <rect class="cls-2" x="42.71" y="162.31" width="8.8" height="8.8"/>
        <rect class="cls-2" x="59.8" y="162.31" width="8.8" height="8.8"/>
        <rect class="cls-2" x="76.89" y="162.31" width="8.8" height="8.8"/>
        <rect class="cls-2" x="85.43" y="162.31" width="8.8" height="8.8"/>
        <rect class="cls-2" x="93.97" y="162.31" width="8.8" height="8.8"/>
        <rect class="cls-2" x="111.06" y="162.31" width="8.8" height="8.8"/>
        <rect class="cls-2" x="128.14" y="162.31" width="8.8" height="8.8"/>
        <rect class="cls-2" x="136.69" y="162.31" width="8.8" height="8.8"/>
        <rect class="cls-2" x="153.77" y="162.31" width="8.8" height="8.8"/>
        <rect class="cls-2" x="162.31" y="162.31" width="8.8" height="8.8"/>
        <rect class="cls-2" x="170.86" y="162.31" width="8.8" height="8.8"/>
        <rect class="cls-2" x="187.94" y="162.31" width="8.8" height="8.8"/>
        <rect class="cls-2" x="196.49" y="162.31" width="8.8" height="8.8"/>
        <rect class="cls-2" x="205.03" y="162.31" width="8.8" height="8.8"/>
        <rect class="cls-2" x="230.66" y="162.31" width="8.8" height="8.8"/>
        <rect class="cls-2" y="170.86" width="8.8" height="8.8"/>
        <rect class="cls-2" x="34.17" y="170.86" width="8.8" height="8.8"/>
        <rect class="cls-2" x="51.26" y="170.86" width="8.8" height="8.8"/>
        <rect class="cls-2" x="85.43" y="170.86" width="8.8" height="8.8"/>
        <rect class="cls-2" x="119.6" y="170.86" width="8.8" height="8.8"/>
        <rect class="cls-2" x="145.23" y="170.86" width="8.8" height="8.8"/>
        <rect class="cls-2" x="170.86" y="170.86" width="8.8" height="8.8"/>
        <rect class="cls-2" x="179.4" y="170.86" width="8.8" height="8.8"/>
        <rect class="cls-2" x="187.94" y="170.86" width="8.8" height="8.8"/>
        <rect class="cls-2" x="196.49" y="170.86" width="8.8" height="8.8"/>
        <rect class="cls-2" x="205.03" y="170.86" width="8.8" height="8.8"/>
        <rect class="cls-2" x="222.12" y="170.86" width="8.8" height="8.8"/>
        <rect class="cls-2" x="230.66" y="170.86" width="8.8" height="8.8"/>
        <rect class="cls-2" x="239.2" y="170.86" width="8.8" height="8.8"/>
        <rect class="cls-2" x="68.34" y="179.4" width="8.8" height="8.8"/>
        <rect class="cls-2" x="85.43" y="179.4" width="8.8" height="8.8"/>
        <rect class="cls-2" x="102.51" y="179.4" width="8.8" height="8.8"/>
        <rect class="cls-2" x="136.69" y="179.4" width="8.8" height="8.8"/>
        <rect class="cls-2" x="145.23" y="179.4" width="8.8" height="8.8"/>
        <rect class="cls-2" x="153.77" y="179.4" width="8.8" height="8.8"/>
        <rect class="cls-2" x="170.86" y="179.4" width="8.8" height="8.8"/>
        <rect class="cls-2" x="205.03" y="179.4" width="8.8" height="8.8"/>
        <rect class="cls-2" x="213.57" y="179.4" width="8.8" height="8.8"/>
        <rect class="cls-2" x="222.12" y="179.4" width="8.8" height="8.8"/>
        <rect class="cls-2" x="230.66" y="179.4" width="8.8" height="8.8"/>
        <rect class="cls-2" x="239.2" y="179.4" width="8.8" height="8.8"/>
        <rect class="cls-2" x="93.97" y="187.94" width="8.8" height="8.8"/>
        <rect class="cls-2" x="128.14" y="187.94" width="8.8" height="8.8"/>
        <rect class="cls-2" x="153.77" y="187.94" width="8.8" height="8.8"/>
        <rect class="cls-2" x="162.31" y="187.94" width="8.8" height="8.8"/>
        <rect class="cls-2" x="170.86" y="187.94" width="8.8" height="8.8"/>
        <rect class="cls-2" x="187.94" y="187.94" width="8.8" height="8.8"/>
        <rect class="cls-2" x="205.03" y="187.94" width="8.8" height="8.8"/>
        <rect class="cls-2" x="213.57" y="187.94" width="8.8" height="8.8"/>
        <rect class="cls-2" x="222.12" y="187.94" width="8.8" height="8.8"/>
        <rect class="cls-2" x="68.34" y="196.49" width="8.8" height="8.8"/>
        <rect class="cls-2" x="76.89" y="196.49" width="8.8" height="8.8"/>
        <rect class="cls-2" x="119.6" y="196.49" width="8.8" height="8.8"/>
        <rect class="cls-2" x="128.14" y="196.49" width="8.8" height="8.8"/>
        <rect class="cls-2" x="136.69" y="196.49" width="8.8" height="8.8"/>
        <rect class="cls-2" x="153.77" y="196.49" width="8.8" height="8.8"/>
        <rect class="cls-2" x="162.31" y="196.49" width="8.8" height="8.8"/>
        <rect class="cls-2" x="170.86" y="196.49" width="8.8" height="8.8"/>
        <rect class="cls-2" x="205.03" y="196.49" width="8.8" height="8.8"/>
        <rect class="cls-2" x="230.66" y="196.49" width="8.8" height="8.8"/>
        <rect class="cls-2" x="68.34" y="205.03" width="8.8" height="8.8"/>
        <rect class="cls-2" x="76.89" y="205.03" width="8.8" height="8.8"/>
        <rect class="cls-2" x="93.97" y="205.03" width="8.8" height="8.8"/>
        <rect class="cls-2" x="145.23" y="205.03" width="8.8" height="8.8"/>
        <rect class="cls-2" x="170.86" y="205.03" width="8.8" height="8.8"/>
        <rect class="cls-2" x="179.4" y="205.03" width="8.8" height="8.8"/>
        <rect class="cls-2" x="187.94" y="205.03" width="8.8" height="8.8"/>
        <rect class="cls-2" x="196.49" y="205.03" width="8.8" height="8.8"/>
        <rect class="cls-2" x="205.03" y="205.03" width="8.8" height="8.8"/>
        <rect class="cls-2" x="222.12" y="205.03" width="8.8" height="8.8"/>
        <rect class="cls-2" x="230.66" y="205.03" width="8.8" height="8.8"/>
        <rect class="cls-2" x="239.2" y="205.03" width="8.8" height="8.8"/>
        <rect class="cls-2" x="68.34" y="213.57" width="8.8" height="8.8"/>
        <rect class="cls-2" x="93.97" y="213.57" width="8.8" height="8.8"/>
        <rect class="cls-2" x="102.51" y="213.57" width="8.8" height="8.8"/>
        <rect class="cls-2" x="119.6" y="213.57" width="8.8" height="8.8"/>
        <rect class="cls-2" x="136.69" y="213.57" width="8.8" height="8.8"/>
        <rect class="cls-2" x="162.31" y="213.57" width="8.8" height="8.8"/>
        <rect class="cls-2" x="196.49" y="213.57" width="8.8" height="8.8"/>
        <rect class="cls-2" x="213.57" y="213.57" width="8.8" height="8.8"/>
        <rect class="cls-2" x="222.12" y="213.57" width="8.8" height="8.8"/>
        <rect class="cls-2" x="230.66" y="213.57" width="8.8" height="8.8"/>
        <rect class="cls-2" x="239.2" y="213.57" width="8.8" height="8.8"/>
        <rect class="cls-2" x="68.34" y="222.12" width="8.8" height="8.8"/>
        <rect class="cls-2" x="76.89" y="222.12" width="8.8" height="8.8"/>
        <rect class="cls-2" x="93.97" y="222.12" width="8.8" height="8.8"/>
        <rect class="cls-2" x="111.06" y="222.12" width="8.8" height="8.8"/>
        <rect class="cls-2" x="128.14" y="222.12" width="8.8" height="8.8"/>
        <rect class="cls-2" x="136.69" y="222.12" width="8.8" height="8.8"/>
        <rect class="cls-2" x="145.23" y="222.12" width="8.8" height="8.8"/>
        <rect class="cls-2" x="153.77" y="222.12" width="8.8" height="8.8"/>
        <rect class="cls-2" x="187.94" y="222.12" width="8.8" height="8.8"/>
        <rect class="cls-2" x="196.49" y="222.12" width="8.8" height="8.8"/>
        <rect class="cls-2" x="205.03" y="222.12" width="8.8" height="8.8"/>
        <rect class="cls-2" x="213.57" y="222.12" width="8.8" height="8.8"/>
        <rect class="cls-2" x="222.12" y="222.12" width="8.8" height="8.8"/>
        <rect class="cls-2" x="230.66" y="222.12" width="8.8" height="8.8"/>
        <rect class="cls-2" x="76.89" y="230.66" width="8.8" height="8.8"/>
        <rect class="cls-2" x="93.97" y="230.66" width="8.8" height="8.8"/>
        <rect class="cls-2" x="111.06" y="230.66" width="8.8" height="8.8"/>
        <rect class="cls-2" x="119.6" y="230.66" width="8.8" height="8.8"/>
        <rect class="cls-2" x="128.14" y="230.66" width="8.8" height="8.8"/>
        <rect class="cls-2" x="153.77" y="230.66" width="8.8" height="8.8"/>
        <rect class="cls-2" x="170.86" y="230.66" width="8.8" height="8.8"/>
        <rect class="cls-2" x="196.49" y="230.66" width="8.8" height="8.8"/>
        <rect class="cls-2" x="213.57" y="230.66" width="8.8" height="8.8"/>
        <rect class="cls-2" x="230.66" y="230.66" width="8.8" height="8.8"/>
        <rect class="cls-2" x="68.34" y="239.2" width="8.8" height="8.8"/>
        <rect class="cls-2" x="76.89" y="239.2" width="8.8" height="8.8"/>
        <rect class="cls-2" x="93.97" y="239.2" width="8.8" height="8.8"/>
        <rect class="cls-2" x="119.6" y="239.2" width="8.8" height="8.8"/>
        <rect class="cls-2" x="145.23" y="239.2" width="8.8" height="8.8"/>
        <rect class="cls-2" x="162.31" y="239.2" width="8.8" height="8.8"/>
        <rect class="cls-2" x="179.4" y="239.2" width="8.8" height="8.8"/>
        <rect class="cls-2" x="196.49" y="239.2" width="8.8" height="8.8"/>
        <rect class="cls-2" x="205.03" y="239.2" width="8.8" height="8.8"/>
        <rect class="cls-2" x="213.57" y="239.2" width="8.8" height="8.8"/>
        <rect class="cls-2" x="222.12" y="239.2" width="8.8" height="8.8"/>
        <path class="cls-2" d="m19.22,59.8h21.78c10.25,0,18.79-8.54,18.79-18.79v-21.78C59.8,8.54,51.26,0,40.58,0h-21.78C8.54,0,0,8.54,0,18.79v21.78c0,10.68,8.54,19.22,19.22,19.22ZM51.26,20.5v18.79c0,6.41-5.55,11.96-11.96,11.96h-18.79c-6.83,0-11.96-5.13-11.96-11.96v-18.79c0-6.41,5.55-11.96,11.96-11.96h18.79c6.83,0,11.96,5.13,11.96,11.96Z"/>
        <path class="cls-2" d="m207.17,59.8h21.78c10.25,0,18.79-8.54,18.79-18.79v-21.78c0-10.68-8.54-19.22-19.22-19.22h-21.78c-10.25,0-18.79,8.54-18.79,18.79v21.78c0,10.68,8.54,19.22,19.22,19.22Zm32.04-39.3v18.79c0,6.41-5.55,11.96-11.96,11.96h-18.79c-6.83,0-11.96-5.13-11.96-11.96v-18.79c0-6.41,5.55-11.96,11.96-11.96h18.79c6.83,0,11.96,5.13,11.96,11.96Z"/>
        <path class="cls-2" d="m19.22,247.74h21.78c10.25,0,18.79-8.54,18.79-18.79v-21.78c0-10.68-8.54-19.22-19.22-19.22h-21.78c-10.25,0-18.79,8.54-18.79,18.79v21.78c0,10.68,8.54,19.22,19.22,19.22Zm32.04-39.3v18.79c0,6.41-5.55,11.96-11.96,11.96h-18.79c-6.83,0-11.96-5.13-11.96-11.96v-18.79c0-6.41,5.55-11.96,11.96-11.96h18.79c6.83,0,11.96,5.13,11.96,11.96Z"/>
        <path class="cls-2" d="m42.71,24.35v11.53c0,3.42-3.42,6.83-7.26,6.83h-11.11c-4.27,0-7.26-2.99-7.26-7.26v-11.11c0-3.84,3.42-7.26,7.26-7.26h11.53c3.84,0,6.83,2.99,6.83,7.26Z"/>
        <path class="cls-2" d="m230.66,24.35v11.53c0,3.42-3.42,6.83-7.26,6.83h-11.11c-4.27,0-7.26-2.99-7.26-7.26v-11.11c0-3.84,3.42-7.26,7.26-7.26h11.53c3.84,0,6.83,2.99,6.83,7.26Z"/>
        <path class="cls-2" d="m42.71,212.29v11.53c0,3.42-3.42,6.83-7.26,6.83h-11.11c-4.27,0-7.26-2.99-7.26-7.26v-11.11c0-3.84,3.42-7.26,7.26-7.26h11.53c3.84,0,6.83,2.99,6.83,7.26Z"/>
      </g>
      <path class="cls-1" d="m93.69,123.17c.11-4.31.18-8.62.33-12.91.11-2.75.73-5.42,2.04-7.87,2.09-3.91,5.38-6.33,9.62-7.53,2.02-.58,4.11-.82,6.2-.84,7.53-.07,15.06-.07,22.57,0,2.91.02,5.8.44,8.53,1.67,4.49,1.98,7.24,5.4,8.58,10.04.56,1.96.82,3.98.84,5.98.04,7.71.07,15.42,0,23.15-.02,2.84-.51,5.67-1.69,8.31-2.02,4.51-5.51,7.24-10.22,8.55-2.47.69-5.02.82-7.55.84-6.51.09-13.04.09-19.55,0-2.71-.04-5.47-.18-8.09-1-6.02-1.89-9.55-6.02-10.84-12.13-.6-2.84-.6-5.73-.64-8.62-.04-2.56,0-5.09,0-7.64h-.13Zm53.68.2h-.11c0-2.47.07-4.95,0-7.42s-.18-4.93-.44-7.4c-.22-2.02-1-3.89-2.38-5.49-1.8-2.11-4.15-3.2-6.82-3.49-2.33-.27-4.71-.4-7.04-.42-4.91-.07-9.82-.07-14.71,0-2.4.02-4.8.11-7.15.44-4.69.64-7.87,3.27-8.95,8.04-.38,1.71-.51,3.49-.53,5.24-.09,5.89-.09,11.75-.09,17.64,0,2.67,0,5.33.51,7.95.8,4,3.04,6.8,7,8,1.56.47,3.22.71,4.87.76,6.24.13,12.51.18,18.75.13,2.75,0,5.53.02,8.26-.56,4-.84,6.73-3.13,7.89-7.09.36-1.24.6-2.56.64-3.87.18-4.15.22-8.31.33-12.46l-.02-.02Z"/>
      <path class="cls-1" d="m112.73,142.28c-2.51,0-5.31-.89-7.27-3.58-1.38-1.89-1.78-4.07-1.71-6.35.11-3.78,1.36-7.22,3.2-10.44,4.42-7.69,10.58-13.44,18.86-16.75,2.91-1.16,5.93-1.73,9.06-1.2,4.22.71,7.02,3.87,7.31,8.18.27,4.22-.98,8.07-3,11.66-4.22,7.58-10.24,13.29-18.26,16.77-2.42,1.04-4.93,1.67-8.24,1.69l.04.02Zm10.18-11.49h.18c.33-1.04.71-2.09,1-3.15.49-1.89,1.62-3.04,3.51-3.53,1.09-.29,2.13-.67,3.42-1.09-1.47-.47-2.71-.87-3.95-1.24-1.16-.36-2.02-1.07-2.56-2.16-.27-.51-.4-1.11-.58-1.67-.29-.91-.6-1.82-.96-2.95-.42,1.33-.8,2.42-1.09,3.51-.49,1.78-1.58,2.89-3.38,3.38-1.11.31-2.2.69-3.31,1.04,1.16.51,2.29.89,3.44,1.24,1.64.49,2.69,1.53,3.18,3.18.33,1.16.71,2.29,1.07,3.42l.02.02Zm12.71-18.42c1.07,0,1.93-.89,1.91-1.93,0-1.04-.89-1.91-1.96-1.91s-1.91.87-1.91,1.96.87,1.91,1.93,1.91l.02-.02Z"/>
    </g>
  </g>
</svg>